<mxfile host="app.diagrams.net" agent="Mozilla/5.0 (Windows NT 10.0; Win64; x64) AppleWebKit/537.36 (KHTML, like Gecko) Chrome/136.0.0.0 Safari/537.36 Edg/136.0.0.0" version="26.2.15">
  <diagram name="第 1 页" id="KUo6yDerENGOqaQaUEw2">
    <mxGraphModel dx="3141" dy="1280" grid="1" gridSize="10" guides="1" tooltips="1" connect="1" arrows="1" fold="1" page="1" pageScale="1" pageWidth="827" pageHeight="1169" math="0" shadow="0">
      <root>
        <mxCell id="0" />
        <mxCell id="1" parent="0" />
        <mxCell id="TZbf1dnp0D2slZVV6mGP-96" value="文件系统" style="whiteSpace=wrap;strokeWidth=2;verticalAlign=top;fontSize=18;" vertex="1" parent="1">
          <mxGeometry x="500" y="1409" width="276" height="312" as="geometry" />
        </mxCell>
        <mxCell id="TZbf1dnp0D2slZVV6mGP-97" value="数据库" style="whiteSpace=wrap;strokeWidth=2;verticalAlign=top;fontSize=18;" vertex="1" parent="1">
          <mxGeometry x="810" y="1150" width="293" height="778" as="geometry" />
        </mxCell>
        <mxCell id="TZbf1dnp0D2slZVV6mGP-98" value="后端服务" style="whiteSpace=wrap;strokeWidth=2;verticalAlign=top;fontSize=18;" vertex="1" parent="1">
          <mxGeometry x="130" y="1110" width="330" height="910" as="geometry" />
        </mxCell>
        <mxCell id="TZbf1dnp0D2slZVV6mGP-99" value="前端界面" style="whiteSpace=wrap;strokeWidth=2;verticalAlign=top;fontSize=18;" vertex="1" parent="1">
          <mxGeometry x="-210" y="1110" width="291" height="910" as="geometry" />
        </mxCell>
        <mxCell id="TZbf1dnp0D2slZVV6mGP-181" style="edgeStyle=orthogonalEdgeStyle;rounded=0;orthogonalLoop=1;jettySize=auto;html=1;exitX=1;exitY=0.5;exitDx=0;exitDy=0;entryX=0;entryY=0.5;entryDx=0;entryDy=0;" edge="1" parent="1" source="TZbf1dnp0D2slZVV6mGP-100" target="TZbf1dnp0D2slZVV6mGP-103">
          <mxGeometry relative="1" as="geometry" />
        </mxCell>
        <mxCell id="TZbf1dnp0D2slZVV6mGP-100" value="发送项目删除请求" style="rounded=1;arcSize=20;strokeWidth=2;fontSize=18;" vertex="1" parent="1">
          <mxGeometry x="-187.5" y="1138" width="246" height="78" as="geometry" />
        </mxCell>
        <mxCell id="TZbf1dnp0D2slZVV6mGP-101" value="从列表中移除已删除项目" style="rounded=1;arcSize=20;strokeWidth=2;fontSize=18;" vertex="1" parent="1">
          <mxGeometry x="-160" y="1910" width="206" height="78" as="geometry" />
        </mxCell>
        <mxCell id="TZbf1dnp0D2slZVV6mGP-103" value="处理项目删除请求" style="whiteSpace=wrap;strokeWidth=2;fontSize=18;" vertex="1" parent="1">
          <mxGeometry x="201" y="1150" width="188" height="54" as="geometry" />
        </mxCell>
        <mxCell id="TZbf1dnp0D2slZVV6mGP-168" style="edgeStyle=orthogonalEdgeStyle;rounded=0;orthogonalLoop=1;jettySize=auto;html=1;exitX=1;exitY=0.5;exitDx=0;exitDy=0;entryX=0;entryY=0.5;entryDx=0;entryDy=0;fontSize=18;" edge="1" parent="1" source="TZbf1dnp0D2slZVV6mGP-104" target="TZbf1dnp0D2slZVV6mGP-109">
          <mxGeometry relative="1" as="geometry" />
        </mxCell>
        <mxCell id="TZbf1dnp0D2slZVV6mGP-104" value="查询项目记录获取文件路径" style="whiteSpace=wrap;strokeWidth=2;fontSize=18;" vertex="1" parent="1">
          <mxGeometry x="169" y="1254" width="252" height="54" as="geometry" />
        </mxCell>
        <mxCell id="TZbf1dnp0D2slZVV6mGP-175" style="edgeStyle=orthogonalEdgeStyle;rounded=0;orthogonalLoop=1;jettySize=auto;html=1;exitX=1;exitY=0.5;exitDx=0;exitDy=0;entryX=0;entryY=0.5;entryDx=0;entryDy=0;fontSize=18;" edge="1" parent="1" source="TZbf1dnp0D2slZVV6mGP-105" target="TZbf1dnp0D2slZVV6mGP-110">
          <mxGeometry relative="1" as="geometry" />
        </mxCell>
        <mxCell id="TZbf1dnp0D2slZVV6mGP-105" value="从数据库删除项目记录" style="whiteSpace=wrap;strokeWidth=2;fontSize=18;" vertex="1" parent="1">
          <mxGeometry x="185" y="1770" width="220" height="54" as="geometry" />
        </mxCell>
        <mxCell id="TZbf1dnp0D2slZVV6mGP-171" style="edgeStyle=orthogonalEdgeStyle;rounded=0;orthogonalLoop=1;jettySize=auto;html=1;exitX=0.5;exitY=1;exitDx=0;exitDy=0;entryX=0;entryY=0.5;entryDx=0;entryDy=0;curved=1;fontSize=18;" edge="1" parent="1" source="TZbf1dnp0D2slZVV6mGP-106" target="TZbf1dnp0D2slZVV6mGP-111">
          <mxGeometry relative="1" as="geometry" />
        </mxCell>
        <mxCell id="TZbf1dnp0D2slZVV6mGP-106" value="删除关联的原始图像文件" style="whiteSpace=wrap;strokeWidth=2;fontSize=18;" vertex="1" parent="1">
          <mxGeometry x="169" y="1360" width="236" height="54" as="geometry" />
        </mxCell>
        <mxCell id="TZbf1dnp0D2slZVV6mGP-173" style="edgeStyle=orthogonalEdgeStyle;rounded=0;orthogonalLoop=1;jettySize=auto;html=1;exitX=0.5;exitY=1;exitDx=0;exitDy=0;entryX=0;entryY=0.5;entryDx=0;entryDy=0;curved=1;fontSize=18;" edge="1" parent="1" source="TZbf1dnp0D2slZVV6mGP-107" target="TZbf1dnp0D2slZVV6mGP-112">
          <mxGeometry relative="1" as="geometry" />
        </mxCell>
        <mxCell id="TZbf1dnp0D2slZVV6mGP-107" value="删除关联的增强图像文件" style="whiteSpace=wrap;strokeWidth=2;fontSize=18;" vertex="1" parent="1">
          <mxGeometry x="177" y="1570" width="236" height="54" as="geometry" />
        </mxCell>
        <mxCell id="TZbf1dnp0D2slZVV6mGP-180" style="edgeStyle=orthogonalEdgeStyle;rounded=0;orthogonalLoop=1;jettySize=auto;html=1;exitX=0;exitY=0.5;exitDx=0;exitDy=0;entryX=1;entryY=0.5;entryDx=0;entryDy=0;" edge="1" parent="1" source="TZbf1dnp0D2slZVV6mGP-108" target="TZbf1dnp0D2slZVV6mGP-101">
          <mxGeometry relative="1" as="geometry" />
        </mxCell>
        <mxCell id="TZbf1dnp0D2slZVV6mGP-108" value="生成删除成功响应/重定向指令" style="whiteSpace=wrap;strokeWidth=2;fontSize=18;" vertex="1" parent="1">
          <mxGeometry x="169" y="1910" width="260" height="78" as="geometry" />
        </mxCell>
        <mxCell id="TZbf1dnp0D2slZVV6mGP-169" style="edgeStyle=orthogonalEdgeStyle;rounded=0;orthogonalLoop=1;jettySize=auto;html=1;exitX=0.5;exitY=1;exitDx=0;exitDy=0;curved=1;fontSize=18;" edge="1" parent="1" source="TZbf1dnp0D2slZVV6mGP-109" target="TZbf1dnp0D2slZVV6mGP-106">
          <mxGeometry relative="1" as="geometry" />
        </mxCell>
        <mxCell id="TZbf1dnp0D2slZVV6mGP-109" value="返回项目记录 (含文件路径)" style="rounded=1;arcSize=20;strokeWidth=2;fontSize=18;" vertex="1" parent="1">
          <mxGeometry x="845" y="1254" width="223" height="54" as="geometry" />
        </mxCell>
        <mxCell id="TZbf1dnp0D2slZVV6mGP-176" style="edgeStyle=orthogonalEdgeStyle;rounded=0;orthogonalLoop=1;jettySize=auto;html=1;exitX=0.5;exitY=1;exitDx=0;exitDy=0;entryX=0.5;entryY=0;entryDx=0;entryDy=0;curved=1;fontSize=18;" edge="1" parent="1" source="TZbf1dnp0D2slZVV6mGP-110" target="TZbf1dnp0D2slZVV6mGP-108">
          <mxGeometry relative="1" as="geometry" />
        </mxCell>
        <mxCell id="TZbf1dnp0D2slZVV6mGP-110" value="确认数据库记录已删除" style="rounded=1;arcSize=20;strokeWidth=2;fontSize=18;" vertex="1" parent="1">
          <mxGeometry x="863" y="1770" width="190" height="54" as="geometry" />
        </mxCell>
        <mxCell id="TZbf1dnp0D2slZVV6mGP-172" style="edgeStyle=orthogonalEdgeStyle;rounded=0;orthogonalLoop=1;jettySize=auto;html=1;exitX=0.5;exitY=1;exitDx=0;exitDy=0;curved=1;fontSize=18;" edge="1" parent="1" source="TZbf1dnp0D2slZVV6mGP-111" target="TZbf1dnp0D2slZVV6mGP-107">
          <mxGeometry relative="1" as="geometry" />
        </mxCell>
        <mxCell id="TZbf1dnp0D2slZVV6mGP-111" value="确认原始图像文件已删除" style="rounded=1;arcSize=20;strokeWidth=2;fontSize=18;" vertex="1" parent="1">
          <mxGeometry x="535" y="1434" width="206" height="54" as="geometry" />
        </mxCell>
        <mxCell id="TZbf1dnp0D2slZVV6mGP-174" style="edgeStyle=orthogonalEdgeStyle;rounded=0;orthogonalLoop=1;jettySize=auto;html=1;exitX=0.5;exitY=1;exitDx=0;exitDy=0;entryX=0.5;entryY=0;entryDx=0;entryDy=0;curved=1;fontSize=18;" edge="1" parent="1" source="TZbf1dnp0D2slZVV6mGP-112" target="TZbf1dnp0D2slZVV6mGP-105">
          <mxGeometry relative="1" as="geometry" />
        </mxCell>
        <mxCell id="TZbf1dnp0D2slZVV6mGP-112" value="确认增强图像文件已删除" style="rounded=1;arcSize=20;strokeWidth=2;fontSize=18;" vertex="1" parent="1">
          <mxGeometry x="535" y="1642" width="206" height="54" as="geometry" />
        </mxCell>
        <mxCell id="TZbf1dnp0D2slZVV6mGP-114" value="" style="curved=1;startArrow=none;endArrow=block;exitX=0.5;exitY=1;entryX=0.5;entryY=0;rounded=0;fontSize=18;" edge="1" parent="1" source="TZbf1dnp0D2slZVV6mGP-103" target="TZbf1dnp0D2slZVV6mGP-104">
          <mxGeometry relative="1" as="geometry">
            <Array as="points" />
          </mxGeometry>
        </mxCell>
        <mxCell id="TZbf1dnp0D2slZVV6mGP-160" style="edgeStyle=orthogonalEdgeStyle;rounded=0;orthogonalLoop=1;jettySize=auto;html=1;exitX=0.5;exitY=1;exitDx=0;exitDy=0;fontSize=18;" edge="1" parent="1" source="TZbf1dnp0D2slZVV6mGP-100" target="TZbf1dnp0D2slZVV6mGP-100">
          <mxGeometry relative="1" as="geometry" />
        </mxCell>
      </root>
    </mxGraphModel>
  </diagram>
</mxfile>
